<?xml version="1.0" encoding="utf-8"?>
<svg version="1.1" id="Слой_1" xmlns="http://www.w3.org/2000/svg" xmlns:xlink="http://www.w3.org/1999/xlink" x="0px" y="0px"
	 viewBox="0 0 26 28" enable-background="new 0 0 26 28" xml:space="preserve">
<g>
	<path fill="#676767" d="M4.1,13.8c1.9,0,3.4-2.1,3.4-4.7c0-2.6-1.5-4.7-3.4-4.7c-1.9,0-3.5,2.1-3.5,4.7C0.6,11.7,2.2,13.8,4.1,13.8
		z"/>
	<path fill="#676767" d="M11.6,9.8c0.2,0,0.3,0,0.5,0c1.7,0,3.4-1.8,3.9-4.2c0.5-2.7-0.6-5.2-2.5-5.5c-0.2,0-0.3,0-0.5,0
		c-1.8,0-3.4,1.8-3.9,4.3C8.6,6.9,9.7,9.4,11.6,9.8z"/>
	<path fill="#676767" d="M23.1,10.9c2-1.9,2.6-4.5,1.3-5.8c-0.5-0.5-1.2-0.8-2.1-0.8c-1.3,0-2.8,0.6-4,1.7c-2,1.9-2.6,4.5-1.2,5.8
		c0.5,0.5,1.2,0.8,2.1,0.8C20.4,12.7,21.9,12,23.1,10.9z"/>
	<path fill="#676767" d="M25.1,15.2c-0.5-0.5-1.2-0.7-1.9-0.7c-1.2,0-2.6,0.6-3.8,1.7c-1.8,1.7-2.3,4.2-1,5.4
		c0.5,0.5,1.2,0.7,1.9,0.7c1.2,0,2.6-0.6,3.8-1.7C25.9,18.8,26.3,16.4,25.1,15.2z"/>
	<path fill="#676767" d="M13.2,13.7c-0.6-0.1-1.2-0.2-1.8-0.2c-1,0-2.1,0.2-3.1,0.4C4.1,15.1,0,18.2,0,20.4c0.1,3.2,5,2.8,7.5,4
		c0.3,0.1,0.5,0.3,0.8,0.4c1.8,1.2,2.2,2.6,5.7,2.6c2.9,0,3-4.8,3-4.8C17,15.4,13.2,13.7,13.2,13.7z"/>
</g>

</svg>
