<?xml version="1.0" encoding="UTF-8"?>
<svg width="304px" height="320px" viewBox="0 0 304 320" version="1.1" xmlns="http://www.w3.org/2000/svg" xmlns:xlink="http://www.w3.org/1999/xlink">
    <!-- Generator: sketchtool 47.1 (45422) - http://www.bohemiancoding.com/sketch -->
    <title>1884CDFB-0965-4266-8A3C-F34DE81883AB</title>
    <desc>Created with sketchtool.</desc>
    <defs></defs>
    <g id="Symbols" stroke="none" stroke-width="1" fill="none" fill-rule="evenodd">
        <g id="404">
            <g>
                <g id="Group-92">
                    <path d="M278.440917,136.411831 C278.440917,211.249094 217.664842,271.916717 142.693795,271.916717 C67.7227477,271.916717 6.94667266,211.249094 6.94667266,136.411831 C6.94667266,61.5745668 67.7227477,0.906944625 142.693795,0.906944625 C217.664842,0.906944625 278.440917,61.5745668 278.440917,136.411831" id="Fill-21" fill="#027FEA" opacity="0.5"></path>
                    <polygon id="Fill-22" fill="#FFFFFF" points="117.448609 248.463844 133.111738 248.463844 133.111738 225.532248 117.448609 225.532248"></polygon>
                    <polygon id="Fill-24" fill="#D9D8D7" points="120.581235 241.167427 122.147548 241.167427 122.147548 236.998046 120.581235 236.998046"></polygon>
                    <polygon id="Fill-25" fill="#D9D8D7" points="128.4128 241.167427 129.979113 241.167427 129.979113 236.998046 128.4128 236.998046"></polygon>
                    <polygon id="Fill-26" fill="#D9D8D7" points="124.497017 234.913355 126.06333 234.913355 126.06333 232.828664 124.497017 232.828664"></polygon>
                    <path d="M72.7228175,305.186727 C72.7228175,300.406404 72.7228175,296.790879 72.7228175,294.340152 L72.7228175,242.86645 L74.8876978,242.86645 L74.8876978,294.340152 C74.8876978,297.330736 74.8926056,300.946261 74.9024212,305.186727 L79.0645324,306.4009 L79.0645324,313.149116 L77.4982194,313.149116 L77.4982194,319.897331 C76.7815624,320.034223 76.2643659,320.034223 75.9466298,319.897331 C75.8599887,319.860003 75.8550809,317.610598 75.9319065,313.149116 L71.7550719,313.149116 L71.7550719,319.897331 L70.188759,319.897331 L70.188759,313.149116 L68.622446,313.149116 L68.622446,306.4009 L72.7228175,305.186727 Z" id="Fill-29-Copy" fill="#9A9A9A"></path>
                    <path d="M72.8090961,258.439401 C72.8025524,256.180777 72.7992806,254.294376 72.7992806,252.780195 L72.7992806,220.977199 L74.8876978,220.977199 L74.8876978,252.780195 C74.8876978,254.627926 74.8909697,256.861776 74.8975134,259.481746 L72.8090961,258.439401 Z" id="Fill-29" fill="#FFFFFF"></path>
                    <polygon id="Fill-31" fill="#D9D8D7" points="125.59991 206.649016 79.6829242 206.649016 82.1785828 184.650319 123.104252 184.650319"></polygon>
                    <path d="M134.780593,209.217251 L70.5001535,209.217251 L70.5001535,208.118619 C70.5001535,207.739205 70.6452985,207.365003 70.9345443,207.080443 C71.218569,206.793798 71.5965725,206.648912 71.9724877,206.648912 L133.311391,206.648912 C133.683129,206.648912 134.063221,206.793798 134.34829,207.080443 C134.637536,207.365003 134.780593,207.739205 134.780593,208.118619 L134.780593,209.217251 Z" id="Fill-32" fill="#FFFFFF"></path>
                    <path d="M185.281864,180.985329 C185.281864,181.924482 184.920568,182.862593 184.20424,183.575557 C183.486869,184.292691 182.550214,184.650215 181.608338,184.650215 L23.6707378,184.650215 C22.7319942,184.650215 21.7932506,184.292691 21.0758793,183.575557 C20.3605964,182.862593 19.9993002,181.924482 19.9993002,180.985329 L19.9993002,169.985459 L185.281864,169.985459 L185.281864,180.985329 Z" id="Fill-33" fill="#FFFFFF"></path>
                    <path d="M185.281864,64.3449121 C185.281864,63.408886 184.920568,62.4707752 184.20424,61.7567687 C183.486869,61.0375505 182.550214,60.6810684 181.608338,60.6810684 L23.6707378,60.6810684 C22.7319942,60.6810684 21.7932506,61.0375505 21.0758793,61.7567687 C20.3605964,62.4707752 19.9993002,63.408886 19.9993002,64.3449121 L19.9993002,169.985564 L185.281864,169.985564 L185.281864,64.3449121 Z" id="Fill-34" fill="#232E38"></path>
                    <polygon id="Fill-35" fill="#FFFFFF" points="28 161.806254 176.751697 161.806254 176.751697 69 28 69"></polygon>
                    <path d="M169.679925,174.477759 L169.679925,199.596195 L146.115269,199.596195 C143.588284,199.596195 141.537458,197.549029 141.537458,195.025511 L141.537458,174.477759 L169.679925,174.477759 Z" id="Fill-67" fill="#FCD21E"></path>
                    <path d="M150.692453,195.025407 C150.692453,197.548925 148.643715,199.596091 146.114642,199.596091 L169.680343,199.596091 C172.208372,199.596091 174.256065,197.549967 174.257109,195.025407 L150.692453,195.025407 Z" id="Fill-68" fill="#FBA432"></path>
                    <polygon id="Fill-69" fill="#FBA432" points="141.537458 179.046775 169.679925 179.046775 169.679925 174.477134 141.537458 174.477134"></polygon>
                    <g id="Group" transform="translate(12.223705, 174.071661)">
                        <polygon id="Fill-70" fill="#FCD21E" points="0 35.4397394 27.1494245 35.4397394 27.1494245 0 0 0"></polygon>
                        <polygon id="Fill-71" fill="#FBA432" points="13.5747122 35.4397394 27.1494245 35.4397394 27.1494245 0 13.5747122 0"></polygon>
                        <polygon id="Fill-72" fill="#FBA432" points="19.839964 35.4397394 27.1494245 35.4397394 27.1494245 0 19.839964 0"></polygon>
                        <path d="M30.2346567,28.1433225 L27.1494245,28.1433225 L27.1494245,25.1601723 L30.2346567,25.1601723 C30.8872226,25.1601723 31.4984868,24.8934149 31.9602391,24.4052313 C32.4211654,23.9187913 32.6772355,23.2693328 32.6772355,22.5832606 L32.6772355,13.8970806 C32.6772355,13.2118801 32.4211654,12.5632934 31.9602391,12.0794686 C31.4984868,11.5904133 30.8872226,11.3236559 30.2346567,11.3236559 L27.1494245,11.3236559 L27.1494245,8.33876221 L30.2346567,8.33876221 C31.6397384,8.33876221 32.9638689,8.91499315 33.9608904,9.96458777 C34.9554338,11.0159259 35.5030935,12.414223 35.5030935,13.8970806 L35.5030935,22.5832606 C35.5030935,24.0696052 34.9554338,25.4661588 33.9608904,26.5166252 C32.9638689,27.5662198 31.6397384,28.1433225 30.2346567,28.1433225" id="Fill-73" fill="#FBA432"></path>
                    </g>
                    <path d="M201.389617,209.217251 C201.944092,208.224938 202.254222,207.135687 202.254222,205.992235 C202.254222,201.377772 197.247242,197.63471 191.071792,197.63471 C184.892165,197.63471 179.887273,201.377772 179.887273,205.992235 C179.887273,207.135687 180.196359,208.224938 180.751878,209.217251 L201.389617,209.217251 Z" id="Fill-79" fill="#FFFFFF"></path>
                    <path d="M180.003807,207.18645 C180.136421,207.897329 180.393297,208.57798 180.752504,209.216938 L201.3892,209.216938 C201.748407,208.57798 202.001106,207.897329 202.14103,207.18645 L180.003807,207.18645 Z" id="Fill-80" fill="#E6E5E5"></path>
                    <polygon id="Fill-81" fill="#474F59" points="0.737410072 217.556221 287.894784 217.556221 287.894784 209.217459 0.737410072 209.217459"></polygon>
                    <polygon id="Fill-82" fill="#232E38" points="8.56897482 220.683257 280.063219 220.683257 280.063219 217.556221 8.56897482 217.556221"></polygon>
                    <polygon id="Fill-83" fill="#474F59" points="264.920701 202.006306 261.848639 199.85699 297.741222 148.769564 300.811196 150.918879"></polygon>
                    <polygon id="Fill-84" fill="#474F59" points="300.8113 150.919192 297.736106 153.064339 261.913484 101.930007 264.98659 99.7838176"></polygon>
                    <path d="M298.523543,156.065251 C301.3711,156.065251 303.68089,153.760625 303.68089,150.91815 C303.68089,148.074632 301.3711,145.772091 298.523543,145.772091 C295.678075,145.772091 293.367241,148.074632 293.367241,150.91815 C293.367241,153.760625 295.678075,156.065251 298.523543,156.065251 Z" id="Fill-85" fill="#232E38"></path>
                    <path d="M222.381416,209.217251 L277.077064,209.217251 L277.077064,206.095427 C277.077064,204.499596 276.465158,202.902723 275.246567,201.683179 C274.025887,200.46572 272.426159,199.858033 270.826432,199.858033 L228.631005,199.858033 C227.033366,199.858033 225.43155,200.46572 224.21087,201.683179 C222.991234,202.902723 222.381416,204.499596 222.381416,206.095427 L222.381416,209.217251 Z" id="Fill-86" fill="#232E38"></path>
                    <path d="M211,107 C124.333333,175.666667 82.3333333,210 85,210 C87.6666667,210 144,210 254,210 L253,125 L211,107 Z" id="Path-2" fill-opacity="0.2" fill="#FFFFFF"></path>
                    <path d="M263.458391,96.4754137 C265.921679,97.9044691 266.760179,101.052352 265.328569,103.511244 C263.898003,105.971179 260.742404,106.80714 258.281205,105.379127 L246.592333,98.6059674 L251.768475,89.7022541 L263.458391,96.4754137 Z" id="Fill-87" fill="#232E38"></path>
                    <polygon id="Fill-88" fill="#232E38" points="207.630925 106.477029 254.818713 133.818788 254.682966 104.449668 233.247451 92.0290814"></polygon>
                    <polygon id="Fill-89" fill="#474F59" points="239.430419 81.3980977 260.863846 93.818684 254.682131 104.449564 233.24766 92.0289772"></polygon>
                    <polygon id="Fill-90" fill="#232E38" points="246.371692 81.4042476 257.413154 87.8032052 255.667237 90.8072443 244.626819 84.4082866"></polygon>
                </g>
                <path d="M81.5923077,121.439546 L86.2769231,121.439546 L86.2769231,124.869071 L81.5923077,124.869071 L81.5923077,132.545758 L77.3230769,132.545758 L77.3230769,124.869071 L62,124.869071 L62,122.393454 L77.0461538,99.4769539 L81.5923077,99.4769539 L81.5923077,121.439546 Z M66.7307692,121.439546 L77.3230769,121.439546 L77.3230769,105.064128 L76.6307692,106.336005 L66.7307692,121.439546 Z M113.738462,119.895124 C113.738462,121.999788 113.49231,123.865946 113,125.493654 C112.50769,127.121362 111.800005,128.491644 110.876923,129.604542 C109.953842,130.71744 108.823084,131.561565 107.484615,132.136941 C106.146147,132.712316 104.615393,133 102.892308,133 C101.184607,133 99.657699,132.712316 98.3115385,132.136941 C96.9653779,131.561565 95.8230816,130.71744 94.8846154,129.604542 C93.9461492,128.491644 93.2269256,127.121362 92.7269231,125.493654 C92.2269206,123.865946 91.9769231,121.999788 91.9769231,119.895124 L91.9769231,112.150301 C91.9769231,110.045636 92.2230745,108.179478 92.7153846,106.55177 C93.2076948,104.924062 93.9192261,103.549994 94.85,102.429526 C95.7807739,101.309057 96.919224,100.457362 98.2653846,99.8744155 C99.6115452,99.2914689 101.138453,99 102.846154,99 C104.569239,99 106.103839,99.2914689 107.45,99.8744155 C108.796161,100.457362 109.934611,101.309057 110.865385,102.429526 C111.796159,103.549994 112.50769,104.924062 113,106.55177 C113.49231,108.179478 113.738462,110.045636 113.738462,112.150301 L113.738462,119.895124 Z M110.369231,118.688998 C110.369231,120.141953 110.1993,122.430255 109.859434,123.553944 C109.519568,124.677632 109.031017,125.623606 108.393768,126.391895 C107.756519,127.160184 106.9759,127.742925 106.051888,128.140136 C105.127877,128.537347 104.071121,128.735949 102.881589,128.735949 C101.702678,128.735949 100.648577,128.537347 99.7192552,128.140136 C98.7899334,127.742925 98.0013492,127.160184 97.3534791,126.391895 C96.705609,125.623606 96.209093,124.677632 95.8639163,123.553944 C95.5187396,122.430255 95.3461538,120.141953 95.3461538,118.688998 L95.3461538,113.34236 C95.3461538,111.889405 95.5160844,109.601103 95.8559507,108.477415 C96.195817,107.353727 96.6870226,106.405139 97.3295823,105.631624 C97.972142,104.858108 98.7580711,104.270141 99.6873929,103.867704 C100.616715,103.465266 101.670816,103.264051 102.849727,103.264051 C104.039259,103.264051 105.09867,103.465266 106.027992,103.867704 C106.957314,104.270141 107.743243,104.858108 108.385802,105.631624 C109.028362,106.405139 109.519568,107.353727 109.859434,108.477415 C110.1993,109.601103 110.369231,111.889405 110.369231,113.34236 L110.369231,118.688998 Z M138.315385,121.439546 L143,121.439546 L143,124.869071 L138.315385,124.869071 L138.315385,132.545758 L134.046154,132.545758 L134.046154,124.869071 L118.723077,124.869071 L118.723077,122.393454 L133.769231,99.4769539 L138.315385,99.4769539 L138.315385,121.439546 Z M123.453846,121.439546 L134.046154,121.439546 L134.046154,105.064128 L133.353846,106.336005 L123.453846,121.439546 Z" fill="#EF4A5C"></path>
            </g>
        </g>
    </g>
</svg>